<svg width="425" height="423" viewBox="0 0 425 423" fill="none" xmlns="http://www.w3.org/2000/svg">
<g opacity="0.77">
<g opacity="0.77">
<mask id="mask0_1_979" style="mask-type:alpha" maskUnits="userSpaceOnUse" x="0" y="0" width="425" height="423">
<path d="M31.6654 306.217C73.1333 358.389 106.658 340.503 155.227 371.08C182.903 388.498 202.04 424.796 240.97 421.941C270.249 419.789 296.872 397.47 309.997 372.18C316.126 360.365 315.284 342.55 321.964 331.613C335.755 309.048 358.518 303.539 380.311 289.057C405.426 272.353 425.838 250.911 424.212 215.714C422.633 181.381 395.436 157.05 385.891 125.069C375.901 91.5908 386.639 65.3415 352.787 41.8762C325.859 23.2186 295.609 34.2377 267.617 27.3713C196.063 9.83664 156.97 -29.9116 103.196 42.2272C80.7016 72.4068 70.5364 110.599 46.3692 137.937C3.41582 186.563 -23.3481 237.003 31.6654 306.217Z" fill="url(#paint0_radial_1_979)"/>
</mask>
<g mask="url(#mask0_1_979)">
<path opacity="0.77" d="M222.5 -29L-291 484.5" stroke="#1E1E1E" stroke-width="2" stroke-miterlimit="10"/>
<path opacity="0.77" d="M237 -29L-276.5 484.5" stroke="#1E1E1E" stroke-width="2" stroke-miterlimit="10"/>
<path opacity="0.77" d="M251.5 -29L-262 484.5" stroke="#1E1E1E" stroke-width="2" stroke-miterlimit="10"/>
<path opacity="0.77" d="M265.999 -29L-247.5 484.5" stroke="#1E1E1E" stroke-width="2" stroke-miterlimit="10"/>
<path opacity="0.77" d="M280.5 -29L-233 484.5" stroke="#1E1E1E" stroke-width="2" stroke-miterlimit="10"/>
<path opacity="0.77" d="M294.999 -29L-218.5 484.5" stroke="#1E1E1E" stroke-width="2" stroke-miterlimit="10"/>
<path opacity="0.77" d="M309.499 -29L-204.001 484.5" stroke="#1E1E1E" stroke-width="2" stroke-miterlimit="10"/>
<path opacity="0.77" d="M323.999 -29L-189.501 484.5" stroke="#1E1E1E" stroke-width="2" stroke-miterlimit="10"/>
<path opacity="0.77" d="M338.499 -29L-175.001 484.5" stroke="#1E1E1E" stroke-width="2" stroke-miterlimit="10"/>
<path opacity="0.77" d="M352.999 -29L-160.501 484.5" stroke="#1E1E1E" stroke-width="2" stroke-miterlimit="10"/>
<path opacity="0.77" d="M367.499 -29L-146.001 484.5" stroke="#1E1E1E" stroke-width="2" stroke-miterlimit="10"/>
<path opacity="0.77" d="M381.999 -29L-131.501 484.5" stroke="#1E1E1E" stroke-width="2" stroke-miterlimit="10"/>
<path opacity="0.77" d="M396.499 -29L-117.001 484.5" stroke="#1E1E1E" stroke-width="2" stroke-miterlimit="10"/>
<path opacity="0.77" d="M410.999 -29L-102.501 484.5" stroke="#1E1E1E" stroke-width="2" stroke-miterlimit="10"/>
<path opacity="0.77" d="M425.498 -29L-88.0015 484.5" stroke="#1E1E1E" stroke-width="2" stroke-miterlimit="10"/>
<path opacity="0.77" d="M439.998 -29L-73.5016 484.5" stroke="#1E1E1E" stroke-width="2" stroke-miterlimit="10"/>
<path opacity="0.77" d="M454.498 -29L-59.0016 484.5" stroke="#1E1E1E" stroke-width="2" stroke-miterlimit="10"/>
<path opacity="0.77" d="M468.998 -29L-44.5018 484.5" stroke="#1E1E1E" stroke-width="2" stroke-miterlimit="10"/>
<path opacity="0.77" d="M483.498 -29L-30.0019 484.5" stroke="#1E1E1E" stroke-width="2" stroke-miterlimit="10"/>
<path opacity="0.77" d="M497.998 -29L-15.502 484.5" stroke="#1E1E1E" stroke-width="2" stroke-miterlimit="10"/>
<path opacity="0.77" d="M512.498 -29L-1.0022 484.5" stroke="#1E1E1E" stroke-width="2" stroke-miterlimit="10"/>
<path opacity="0.77" d="M526.997 -29L13.4976 484.5" stroke="#1E1E1E" stroke-width="2" stroke-miterlimit="10"/>
<path opacity="0.77" d="M541.497 -29L27.9975 484.5" stroke="#1E1E1E" stroke-width="2" stroke-miterlimit="10"/>
<path opacity="0.77" d="M555.997 -29L42.4974 484.5" stroke="#1E1E1E" stroke-width="2" stroke-miterlimit="10"/>
<path opacity="0.77" d="M570.497 -29L56.9973 484.5" stroke="#1E1E1E" stroke-width="2" stroke-miterlimit="10"/>
<path opacity="0.77" d="M584.997 -29L71.4971 484.5" stroke="#1E1E1E" stroke-width="2" stroke-miterlimit="10"/>
<path opacity="0.77" d="M599.497 -29L85.997 484.5" stroke="#1E1E1E" stroke-width="2" stroke-miterlimit="10"/>
<path opacity="0.77" d="M613.997 -29L100.497 484.5" stroke="#1E1E1E" stroke-width="2" stroke-miterlimit="10"/>
<path opacity="0.77" d="M628.497 -29L114.997 484.5" stroke="#1E1E1E" stroke-width="2" stroke-miterlimit="10"/>
<path opacity="0.77" d="M642.997 -29L129.497 484.5" stroke="#1E1E1E" stroke-width="2" stroke-miterlimit="10"/>
</g>
</g>
</g>
<defs>
<radialGradient id="paint0_radial_1_979" cx="0" cy="0" r="1" gradientUnits="userSpaceOnUse" gradientTransform="translate(216.936 205.263) rotate(138.482) scale(200.25)">
<stop stop-color="#00A99D"/>
<stop offset="1" stop-color="#FCEE21" stop-opacity="0"/>
</radialGradient>
</defs>
</svg>
