<svg id="visual" viewBox="0 0 960 540" width="960" height="540" xmlns="http://www.w3.org/2000/svg" xmlns:xlink="http://www.w3.org/1999/xlink" version="1.1">
<g>
    

<path id="art-line-1" d="M0 28L44 28L44 33L87 33L87 23L131 23L131 39L175 39L175 23L218 23L218 23L262 23L262 33L305 33L305 23L349 23L349 28L393 28L393 28L436 28L436 23L480 23L480 23L524 23L524 33L567 33L567 23L611 23L611 39L655 39L655 28L698 28L698 33L742 33L742 23L785 23L785 23L829 23L829 23L873 23L873 39L916 39L916 39L960 39L960 23L960 0L960 0L916 0L916 0L873 0L873 0L829 0L829 0L785 0L785 0L742 0L742 0L698 0L698 0L655 0L655 0L611 0L611 0L567 0L567 0L524 0L524 0L480 0L480 0L436 0L436 0L393 0L393 0L349 0L349 0L305 0L305 0L262 0L262 0L218 0L218 0L175 0L175 0L131 0L131 0L87 0L87 0L44 0L44 0L0 0Z" fill="#d2d0cf"></path>

<path id="art-line-3" d="M0 66L44 66L44 82L87 82L87 60L131 60L131 77L175 77L175 66L218 66L218 77L262 77L262 87L305 87L305 77L349 77L349 87L393 87L393 71L436 71L436 60L480 60L480 77L524 77L524 77L567 77L567 60L611 60L611 77L655 77L655 66L698 66L698 77L742 77L742 55L785 55L785 55L829 55L829 77L873 77L873 93L916 93L916 82L960 82L960 60L960 21L960 37L916 37L916 37L873 37L873 21L829 21L829 21L785 21L785 21L742 21L742 31L698 31L698 26L655 26L655 37L611 37L611 21L567 21L567 31L524 31L524 21L480 21L480 21L436 21L436 26L393 26L393 26L349 26L349 21L305 21L305 31L262 31L262 21L218 21L218 21L175 21L175 37L131 37L131 21L87 21L87 31L44 31L44 26L0 26Z" fill="#e6ae95"></path>

<path id="art-line-5" d="M0 201L44 201L44 201L87 201L87 217L131 217L131 195L175 195L175 179L218 179L218 206L262 206L262 185L305 185L305 158L349 158L349 195L393 195L393 179L436 179L436 147L480 147L480 249L524 249L524 222L567 222L567 158L611 158L611 158L655 158L655 163L698 163L698 185L742 185L742 158L785 158L785 195L829 195L829 190L873 190L873 217L916 217L916 222L960 222L960 195L960 58L960 80L916 80L916 91L873 91L873 75L829 75L829 53L785 53L785 53L742 53L742 75L698 75L698 64L655 64L655 75L611 75L611 58L567 58L567 75L524 75L524 75L480 75L480 58L436 58L436 69L393 69L393 85L349 85L349 75L305 75L305 85L262 85L262 75L218 75L218 64L175 64L175 75L131 75L131 58L87 58L87 80L44 80L44 64L0 64Z" fill="#f28765"></path>

<path id="art-line-7" d="M0 314L44 314L44 325L87 325L87 314L131 314L131 287L175 287L175 341L218 341L218 298L262 298L262 303L305 303L305 293L349 293L349 341L393 341L393 282L436 282L436 282L480 282L480 347L524 347L524 320L567 320L567 287L611 287L611 282L655 282L655 293L698 293L698 314L742 314L742 325L785 325L785 303L829 303L829 347L873 347L873 303L916 303L916 298L960 298L960 287L960 193L960 220L916 220L916 215L873 215L873 188L829 188L829 193L785 193L785 156L742 156L742 183L698 183L698 161L655 161L655 156L611 156L611 156L567 156L567 220L524 220L524 247L480 247L480 145L436 145L436 177L393 177L393 193L349 193L349 156L305 156L305 183L262 183L262 204L218 204L218 177L175 177L175 193L131 193L131 215L87 215L87 199L44 199L44 199L0 199Z" fill="#fb553e"></path>

<path id="art-line-9" d="M0 352L44 352L44 357L87 357L87 341L131 341L131 325L175 325L175 368L218 368L218 347L262 347L262 336L305 336L305 336L349 336L349 368L393 368L393 330L436 330L436 336L480 336L480 390L524 390L524 352L567 352L567 320L611 320L611 325L655 325L655 325L698 325L698 363L742 363L742 357L785 357L785 352L829 352L829 374L873 374L873 341L916 341L916 341L960 341L960 336L960 285L960 296L916 296L916 301L873 301L873 345L829 345L829 301L785 301L785 323L742 323L742 312L698 312L698 291L655 291L655 280L611 280L611 285L567 285L567 318L524 318L524 345L480 345L480 280L436 280L436 280L393 280L393 339L349 339L349 291L305 291L305 301L262 301L262 296L218 296L218 339L175 339L175 285L131 285L131 312L87 312L87 323L44 323L44 312L0 312Z" fill="#fc4837"></path>

<path id="art-line-11" d="M0 411L44 411L44 395L87 395L87 406L131 406L131 390L175 390L175 406L218 406L218 395L262 395L262 401L305 401L305 390L349 390L349 417L393 417L393 390L436 390L436 406L480 406L480 428L524 428L524 417L567 417L567 395L611 395L611 390L655 390L655 401L698 401L698 428L742 428L742 411L785 411L785 390L829 390L829 422L873 422L873 395L916 395L916 379L960 379L960 384L960 334L960 339L916 339L916 339L873 339L873 372L829 372L829 350L785 350L785 355L742 355L742 361L698 361L698 323L655 323L655 323L611 323L611 318L567 318L567 350L524 350L524 388L480 388L480 334L436 334L436 328L393 328L393 366L349 366L349 334L305 334L305 334L262 334L262 345L218 345L218 366L175 366L175 323L131 323L131 339L87 339L87 355L44 355L44 350L0 350Z" fill="#fb553e"></path>

<path id="art-line-13" d="M0 455L44 455L44 422L87 422L87 438L131 438L131 422L175 422L175 449L218 449L218 438L262 438L262 438L305 438L305 428L349 428L349 460L393 460L393 433L436 433L436 433L480 433L480 455L524 455L524 449L567 449L567 422L611 422L611 422L655 422L655 428L698 428L698 471L742 471L742 449L785 449L785 433L829 433L829 455L873 455L873 428L916 428L916 411L960 411L960 417L960 382L960 377L916 377L916 393L873 393L873 420L829 420L829 388L785 388L785 409L742 409L742 426L698 426L698 399L655 399L655 388L611 388L611 393L567 393L567 415L524 415L524 426L480 426L480 404L436 404L436 388L393 388L393 415L349 415L349 388L305 388L305 399L262 399L262 393L218 393L218 404L175 404L175 388L131 388L131 404L87 404L87 393L44 393L44 409L0 409Z" fill="#f28765"></path>

<path id="art-line-15" d="M0 509L44 509L44 503L87 503L87 514L131 514L131 503L175 503L175 503L218 503L218 514L262 514L262 509L305 509L305 514L349 514L349 509L393 509L393 509L436 509L436 509L480 509L480 514L524 514L524 503L567 503L567 503L611 503L611 509L655 509L655 514L698 514L698 519L742 519L742 514L785 514L785 509L829 509L829 509L873 509L873 514L916 514L916 503L960 503L960 509L960 415L960 409L916 409L916 426L873 426L873 453L829 453L829 431L785 431L785 447L742 447L742 469L698 469L698 426L655 426L655 420L611 420L611 420L567 420L567 447L524 447L524 453L480 453L480 431L436 431L436 431L393 431L393 458L349 458L349 426L305 426L305 436L262 436L262 436L218 436L218 447L175 447L175 420L131 420L131 436L87 436L87 420L44 420L44 453L0 453Z" fill="#e6ae95"></path>

<path id="art-line-17" d="M0 541L44 541L44 541L87 541L87 541L131 541L131 541L175 541L175 541L218 541L218 541L262 541L262 541L305 541L305 541L349 541L349 541L393 541L393 541L436 541L436 541L480 541L480 541L524 541L524 541L567 541L567 541L611 541L611 541L655 541L655 541L698 541L698 541L742 541L742 541L785 541L785 541L829 541L829 541L873 541L873 541L916 541L916 541L960 541L960 541L960 507L960 501L916 501L916 512L873 512L873 507L829 507L829 507L785 507L785 512L742 512L742 517L698 517L698 512L655 512L655 507L611 507L611 501L567 501L567 501L524 501L524 512L480 512L480 507L436 507L436 507L393 507L393 507L349 507L349 512L305 512L305 507L262 507L262 512L218 512L218 501L175 501L175 501L131 501L131 512L87 512L87 501L44 501L44 507L0 507Z" fill="#d2d0cf"></path>
</g>
<g style="visibility:hidden">
    

<path id="art-line-2" d="M0 44L44 44L44 50L87 50L87 60L131 60L131 44L175 44L175 60L218 60L218 50L262 50L262 50L305 50L305 33L349 33L349 44L393 44L393 55L436 55L436 39L480 39L480 33L524 33L524 55L567 55L567 33L611 33L611 39L655 39L655 55L698 55L698 33L742 33L742 44L785 44L785 50L829 50L829 60L873 60L873 33L916 33L916 44L960 44L960 44L960 0L960 0L916 0L916 0L873 0L873 0L829 0L829 0L785 0L785 0L742 0L742 0L698 0L698 0L655 0L655 0L611 0L611 0L567 0L567 0L524 0L524 0L480 0L480 0L436 0L436 0L393 0L393 0L349 0L349 0L305 0L305 0L262 0L262 0L218 0L218 0L175 0L175 0L131 0L131 0L87 0L87 0L44 0L44 0L0 0Z" fill="#d2d0cf"></path>

<path id="art-line-4" d="M0 168L44 168L44 201L87 201L87 174L131 174L131 185L175 185L175 206L218 206L218 168L262 168L262 179L305 179L305 179L349 179L349 141L393 141L393 152L436 152L436 158L480 158L480 163L524 163L524 179L567 179L567 114L611 114L611 131L655 131L655 152L698 152L698 131L742 131L742 168L785 168L785 141L829 141L829 201L873 201L873 185L916 185L916 185L960 185L960 174L960 42L960 42L916 42L916 31L873 31L873 58L829 58L829 48L785 48L785 42L742 42L742 31L698 31L698 53L655 53L655 37L611 37L611 31L567 31L567 53L524 53L524 31L480 31L480 37L436 37L436 53L393 53L393 42L349 42L349 31L305 31L305 48L262 48L262 48L218 48L218 58L175 58L175 42L131 42L131 58L87 58L87 48L44 48L44 42L0 42Z" fill="#e6ae95"></path>

<path id="art-line-6" d="M0 206L44 206L44 228L87 228L87 206L131 206L131 217L175 217L175 244L218 244L218 212L262 212L262 206L305 206L305 222L349 222L349 168L393 168L393 179L436 179L436 201L480 201L480 206L524 206L524 217L567 217L567 147L611 147L611 163L655 163L655 185L698 185L698 158L742 158L742 195L785 195L785 168L829 168L829 233L873 233L873 217L916 217L916 222L960 222L960 206L960 172L960 183L916 183L916 183L873 183L873 199L829 199L829 139L785 139L785 166L742 166L742 129L698 129L698 150L655 150L655 129L611 129L611 112L567 112L567 177L524 177L524 161L480 161L480 156L436 156L436 150L393 150L393 139L349 139L349 177L305 177L305 177L262 177L262 166L218 166L218 204L175 204L175 183L131 183L131 172L87 172L87 199L44 199L44 166L0 166Z" fill="#f28765"></path>

<path id="art-line-8" d="M0 239L44 239L44 255L87 255L87 233L131 233L131 244L175 244L175 271L218 271L218 233L262 233L262 233L305 233L305 249L349 249L349 206L393 206L393 212L436 212L436 228L480 228L480 233L524 233L524 244L567 244L567 185L611 185L611 190L655 190L655 217L698 217L698 185L742 185L742 217L785 217L785 201L829 201L829 255L873 255L873 255L916 255L916 255L960 255L960 233L960 204L960 220L916 220L916 215L873 215L873 231L829 231L829 166L785 166L785 193L742 193L742 156L698 156L698 183L655 183L655 161L611 161L611 145L567 145L567 215L524 215L524 204L480 204L480 199L436 199L436 177L393 177L393 166L349 166L349 220L305 220L305 204L262 204L262 210L218 210L218 242L175 242L175 215L131 215L131 204L87 204L87 226L44 226L44 204L0 204Z" fill="#fb553e"></path>

<path id="art-line-10" d="M0 287L44 287L44 298L87 298L87 260L131 260L131 293L175 293L175 309L218 309L218 282L262 282L262 282L305 282L305 282L349 282L349 249L393 249L393 244L436 244L436 276L480 276L480 271L524 271L524 271L567 271L567 217L611 217L611 239L655 239L655 266L698 266L698 233L742 233L742 266L785 266L785 233L829 233L829 282L873 282L873 303L916 303L916 282L960 282L960 271L960 231L960 253L916 253L916 253L873 253L873 253L829 253L829 199L785 199L785 215L742 215L742 183L698 183L698 215L655 215L655 188L611 188L611 183L567 183L567 242L524 242L524 231L480 231L480 226L436 226L436 210L393 210L393 204L349 204L349 247L305 247L305 231L262 231L262 231L218 231L218 269L175 269L175 242L131 242L131 231L87 231L87 253L44 253L44 237L0 237Z" fill="#fc4837"></path>

<path id="art-line-12" d="M0 357L44 357L44 347L87 347L87 325L131 325L131 341L175 341L175 363L218 363L218 347L262 347L262 363L305 363L305 352L349 352L349 303L393 303L393 325L436 325L436 325L480 325L480 363L524 363L524 325L567 325L567 314L611 314L611 303L655 303L655 336L698 336L698 309L742 309L742 363L785 363L785 314L829 314L829 368L873 368L873 363L916 363L916 363L960 363L960 363L960 269L960 280L916 280L916 301L873 301L873 280L829 280L829 231L785 231L785 264L742 264L742 231L698 231L698 264L655 264L655 237L611 237L611 215L567 215L567 269L524 269L524 269L480 269L480 274L436 274L436 242L393 242L393 247L349 247L349 280L305 280L305 280L262 280L262 280L218 280L218 307L175 307L175 291L131 291L131 258L87 258L87 296L44 296L44 285L0 285Z" fill="#fb553e"></path>

<path id="art-line-14" d="M0 449L44 449L44 449L87 449L87 465L131 465L131 444L175 444L175 460L218 460L218 455L262 455L262 455L305 455L305 471L349 471L349 438L393 438L393 465L436 465L436 455L480 455L480 444L524 444L524 449L567 449L567 455L611 455L611 433L655 433L655 471L698 471L698 460L742 460L742 471L785 471L785 455L829 455L829 455L873 455L873 471L916 471L916 449L960 449L960 444L960 361L960 361L916 361L916 361L873 361L873 366L829 366L829 312L785 312L785 361L742 361L742 307L698 307L698 334L655 334L655 301L611 301L611 312L567 312L567 323L524 323L524 361L480 361L480 323L436 323L436 323L393 323L393 301L349 301L349 350L305 350L305 361L262 361L262 345L218 345L218 361L175 361L175 339L131 339L131 323L87 323L87 345L44 345L44 355L0 355Z" fill="#f28765"></path>

<path id="art-line-16" d="M0 509L44 509L44 503L87 503L87 514L131 514L131 509L175 509L175 509L218 509L218 514L262 514L262 514L305 514L305 514L349 514L349 509L393 509L393 514L436 514L436 509L480 509L480 503L524 503L524 503L567 503L567 503L611 503L611 503L655 503L655 509L698 509L698 503L742 503L742 519L785 519L785 514L829 514L829 509L873 509L873 514L916 514L916 503L960 503L960 514L960 442L960 447L916 447L916 469L873 469L873 453L829 453L829 453L785 453L785 469L742 469L742 458L698 458L698 469L655 469L655 431L611 431L611 453L567 453L567 447L524 447L524 442L480 442L480 453L436 453L436 463L393 463L393 436L349 436L349 469L305 469L305 453L262 453L262 453L218 453L218 458L175 458L175 442L131 442L131 463L87 463L87 447L44 447L44 447L0 447Z" fill="#e6ae95"></path>

<path id="art-line-18" d="M0 541L44 541L44 541L87 541L87 541L131 541L131 541L175 541L175 541L218 541L218 541L262 541L262 541L305 541L305 541L349 541L349 541L393 541L393 541L436 541L436 541L480 541L480 541L524 541L524 541L567 541L567 541L611 541L611 541L655 541L655 541L698 541L698 541L742 541L742 541L785 541L785 541L829 541L829 541L873 541L873 541L916 541L916 541L960 541L960 541L960 512L960 501L916 501L916 512L873 512L873 507L829 507L829 512L785 512L785 517L742 517L742 501L698 501L698 507L655 507L655 501L611 501L611 501L567 501L567 501L524 501L524 501L480 501L480 507L436 507L436 512L393 512L393 507L349 507L349 512L305 512L305 512L262 512L262 512L218 512L218 507L175 507L175 507L131 507L131 512L87 512L87 501L44 501L44 507L0 507Z" fill="#d2d0cf"></path>
</g>
</svg>