<svg id="visual" viewBox="0 0 960 540" width="960" height="540" xmlns="http://www.w3.org/2000/svg" xmlns:xlink="http://www.w3.org/1999/xlink" version="1.1"><path d="M0 39L80 39L80 28L160 28L160 33L240 33L240 39L320 39L320 28L400 28L400 50L480 50L480 55L560 55L560 33L640 33L640 50L720 50L720 39L800 39L800 28L880 28L880 50L960 50L960 44L960 0L960 0L880 0L880 0L800 0L800 0L720 0L720 0L640 0L640 0L560 0L560 0L480 0L480 0L400 0L400 0L320 0L320 0L240 0L240 0L160 0L160 0L80 0L80 0L0 0Z" fill="#0a0a0a"></path><path d="M0 114L80 114L80 82L160 82L160 136L240 136L240 98L320 98L320 141L400 141L400 158L480 158L480 120L560 120L560 93L640 93L640 136L720 136L720 136L800 136L800 141L880 141L880 104L960 104L960 104L960 42L960 48L880 48L880 26L800 26L800 37L720 37L720 48L640 48L640 31L560 31L560 53L480 53L480 48L400 48L400 26L320 26L320 37L240 37L240 31L160 31L160 26L80 26L80 37L0 37Z" fill="#68291f"></path><path d="M0 158L80 158L80 147L160 147L160 174L240 174L240 136L320 136L320 206L400 206L400 201L480 201L480 168L560 168L560 136L640 136L640 185L720 185L720 179L800 179L800 168L880 168L880 163L960 163L960 141L960 102L960 102L880 102L880 139L800 139L800 134L720 134L720 134L640 134L640 91L560 91L560 118L480 118L480 156L400 156L400 139L320 139L320 96L240 96L240 134L160 134L160 80L80 80L80 112L0 112Z" fill="#d04030"></path><path d="M0 222L80 222L80 201L160 201L160 233L240 233L240 190L320 190L320 249L400 249L400 271L480 271L480 212L560 212L560 179L640 179L640 239L720 239L720 222L800 222L800 217L880 217L880 217L960 217L960 190L960 139L960 161L880 161L880 166L800 166L800 177L720 177L720 183L640 183L640 134L560 134L560 166L480 166L480 199L400 199L400 204L320 204L320 134L240 134L240 172L160 172L160 145L80 145L80 156L0 156Z" fill="#fc4837"></path><path d="M0 309L80 309L80 239L160 239L160 320L240 320L240 255L320 255L320 309L400 309L400 303L480 303L480 255L560 255L560 260L640 260L640 320L720 320L720 271L800 271L800 271L880 271L880 266L960 266L960 239L960 188L960 215L880 215L880 215L800 215L800 220L720 220L720 237L640 237L640 177L560 177L560 210L480 210L480 269L400 269L400 247L320 247L320 188L240 188L240 231L160 231L160 199L80 199L80 220L0 220Z" fill="#d04030"></path><path d="M0 438L80 438L80 341L160 341L160 411L240 411L240 374L320 374L320 455L400 455L400 422L480 422L480 374L560 374L560 401L640 401L640 438L720 438L720 428L800 428L800 390L880 390L880 401L960 401L960 444L960 237L960 264L880 264L880 269L800 269L800 269L720 269L720 318L640 318L640 258L560 258L560 253L480 253L480 301L400 301L400 307L320 307L320 253L240 253L240 318L160 318L160 237L80 237L80 307L0 307Z" fill="#68291f"></path><path d="M0 541L80 541L80 541L160 541L160 541L240 541L240 541L320 541L320 541L400 541L400 541L480 541L480 541L560 541L560 541L640 541L640 541L720 541L720 541L800 541L800 541L880 541L880 541L960 541L960 541L960 442L960 399L880 399L880 388L800 388L800 426L720 426L720 436L640 436L640 399L560 399L560 372L480 372L480 420L400 420L400 453L320 453L320 372L240 372L240 409L160 409L160 339L80 339L80 436L0 436Z" fill="#0a0a0a"></path></svg>