<svg width="500" height="500" viewBox="0 0 500 500" fill="none" xmlns="http://www.w3.org/2000/svg">
<rect width="500" height="500" fill="white"/>
<mask id="mask0_1_492" style="mask-type:alpha" maskUnits="userSpaceOnUse" x="32" y="39" width="425" height="423">
<path d="M63.6654 345.217C105.133 397.389 138.658 379.503 187.227 410.08C214.903 427.498 234.04 463.796 272.97 460.941C302.249 458.789 328.872 436.47 341.997 411.18C348.126 399.365 347.284 381.55 353.964 370.613C367.755 348.048 390.518 342.539 412.311 328.057C437.426 311.353 457.838 289.911 456.212 254.714C454.633 220.381 427.436 196.05 417.891 164.069C407.901 130.591 418.639 104.342 384.787 80.8762C357.859 62.2186 327.609 73.2377 299.617 66.3713C228.063 48.8366 188.97 9.08837 135.196 81.2272C112.702 111.407 102.536 149.599 78.3692 176.937C35.4158 225.563 8.65185 276.003 63.6654 345.217Z" fill="url(#paint0_radial_1_492)"/>
</mask>
<g mask="url(#mask0_1_492)">
<g opacity="0.77">
<g opacity="0.77">
<path opacity="0.77" d="M254.5 10L-259 523.5" stroke="#1E1E1E" stroke-width="2" stroke-miterlimit="10"/>
<path opacity="0.77" d="M269 10L-244.5 523.5" stroke="#1E1E1E" stroke-width="2" stroke-miterlimit="10"/>
<path opacity="0.77" d="M283.5 10L-230 523.5" stroke="#1E1E1E" stroke-width="2" stroke-miterlimit="10"/>
<path opacity="0.77" d="M297.999 10L-215.5 523.5" stroke="#1E1E1E" stroke-width="2" stroke-miterlimit="10"/>
<path opacity="0.77" d="M312.5 10L-201 523.5" stroke="#1E1E1E" stroke-width="2" stroke-miterlimit="10"/>
<path opacity="0.77" d="M326.999 10L-186.5 523.5" stroke="#1E1E1E" stroke-width="2" stroke-miterlimit="10"/>
<path opacity="0.77" d="M341.499 10L-172.001 523.5" stroke="#1E1E1E" stroke-width="2" stroke-miterlimit="10"/>
<path opacity="0.77" d="M355.999 10L-157.501 523.5" stroke="#1E1E1E" stroke-width="2" stroke-miterlimit="10"/>
<path opacity="0.77" d="M370.499 10L-143.001 523.5" stroke="#1E1E1E" stroke-width="2" stroke-miterlimit="10"/>
<path opacity="0.77" d="M384.999 10L-128.501 523.5" stroke="#1E1E1E" stroke-width="2" stroke-miterlimit="10"/>
<path opacity="0.77" d="M399.499 10L-114.001 523.5" stroke="#1E1E1E" stroke-width="2" stroke-miterlimit="10"/>
<path opacity="0.77" d="M413.999 10L-99.5012 523.5" stroke="#1E1E1E" stroke-width="2" stroke-miterlimit="10"/>
<path opacity="0.77" d="M428.499 10L-85.0012 523.5" stroke="#1E1E1E" stroke-width="2" stroke-miterlimit="10"/>
<path opacity="0.77" d="M442.999 10L-70.5013 523.5" stroke="#1E1E1E" stroke-width="2" stroke-miterlimit="10"/>
<path opacity="0.77" d="M457.498 10L-56.0015 523.5" stroke="#1E1E1E" stroke-width="2" stroke-miterlimit="10"/>
<path opacity="0.77" d="M471.998 10L-41.5016 523.5" stroke="#1E1E1E" stroke-width="2" stroke-miterlimit="10"/>
<path opacity="0.77" d="M486.498 10L-27.0016 523.5" stroke="#1E1E1E" stroke-width="2" stroke-miterlimit="10"/>
<path opacity="0.77" d="M500.998 10L-12.5018 523.5" stroke="#1E1E1E" stroke-width="2" stroke-miterlimit="10"/>
<path opacity="0.77" d="M515.498 10L1.99811 523.5" stroke="#1E1E1E" stroke-width="2" stroke-miterlimit="10"/>
<path opacity="0.77" d="M529.998 10L16.498 523.5" stroke="#1E1E1E" stroke-width="2" stroke-miterlimit="10"/>
<path opacity="0.77" d="M544.498 10L30.9978 523.5" stroke="#1E1E1E" stroke-width="2" stroke-miterlimit="10"/>
<path opacity="0.77" d="M558.997 10L45.4976 523.5" stroke="#1E1E1E" stroke-width="2" stroke-miterlimit="10"/>
<path opacity="0.77" d="M573.497 10L59.9975 523.5" stroke="#1E1E1E" stroke-width="2" stroke-miterlimit="10"/>
<path opacity="0.77" d="M587.997 10L74.4974 523.5" stroke="#1E1E1E" stroke-width="2" stroke-miterlimit="10"/>
<path opacity="0.77" d="M602.497 10L88.9973 523.5" stroke="#1E1E1E" stroke-width="2" stroke-miterlimit="10"/>
<path opacity="0.77" d="M616.997 10L103.497 523.5" stroke="#1E1E1E" stroke-width="2" stroke-miterlimit="10"/>
<path opacity="0.77" d="M631.497 10L117.997 523.5" stroke="#1E1E1E" stroke-width="2" stroke-miterlimit="10"/>
<path opacity="0.77" d="M645.997 10L132.497 523.5" stroke="#1E1E1E" stroke-width="2" stroke-miterlimit="10"/>
<path opacity="0.77" d="M660.497 10L146.997 523.5" stroke="#1E1E1E" stroke-width="2" stroke-miterlimit="10"/>
<path opacity="0.77" d="M674.997 10L161.497 523.5" stroke="#1E1E1E" stroke-width="2" stroke-miterlimit="10"/>
</g>
</g>
</g>
<defs>
<radialGradient id="paint0_radial_1_492" cx="0" cy="0" r="1" gradientUnits="userSpaceOnUse" gradientTransform="translate(248.936 244.263) rotate(138.482) scale(200.25)">
<stop stop-color="#00A99D"/>
<stop offset="1" stop-color="#FCEE21" stop-opacity="0"/>
</radialGradient>
</defs>
</svg>
