<svg width="397" height="532" viewBox="0 0 397 532" fill="none" xmlns="http://www.w3.org/2000/svg">
<path opacity="0.1" d="M15.9943 191.794C5.28805 202.85 -3.77623 217.669 -3.50023 233.562C-3.28567 245.898 2.956 256.836 10.8463 265.949C19.7241 276.206 30.4978 284.642 40.8796 293.304C47.233 298.609 53.2261 304.139 58.2671 310.749C63.6927 317.855 68.0764 325.759 71.2421 334.113C74.5073 342.752 76.436 351.821 76.9796 361.035C77.6008 371.544 76.6916 382.047 76.2796 392.548C75.618 409.815 76.7402 428.616 87.5823 442.94C92.3756 449.277 98.966 454.045 106.631 456.233C114.496 458.486 122.959 458.041 130.79 455.864C148.583 450.931 161.589 437.551 171.62 422.639C182.358 406.674 190.199 388.888 201.959 373.59C207.836 365.951 214.726 358.976 222.957 353.873C231.125 348.815 240.262 345.662 249.486 343.154C266.902 338.43 285.221 335.782 300.997 326.478C308.276 322.185 314.769 316.461 319.232 309.23C323.706 301.96 325.968 293.518 326.41 285.033C328.47 245.157 294.959 218.185 267.824 194.619C252.657 181.445 238.202 167.467 228.662 149.558C219.454 132.265 214.025 113.118 203.532 96.4852C194.219 81.7113 180.667 68.8454 162.768 66.2132C145.755 63.7148 128.409 70.0718 114.708 79.9007C98.9301 91.2228 87.1666 107.306 76.103 123.018C70.1686 131.45 64.435 140.059 57.8873 148.036C51.4189 155.91 44.3482 163.25 37.1418 170.44C33.6953 173.875 30.2179 177.271 26.7547 180.691C23.0793 184.324 19.698 188.211 16.1062 191.918C15.8225 192.204 16.2613 192.653 16.545 192.366C20.1245 188.667 24.0431 185.286 27.7133 181.673C31.1765 178.252 34.6539 174.857 38.1004 171.422C45.1488 164.397 52.0615 157.221 58.4027 149.551C70.9884 134.34 80.9271 117.147 93.6351 102.02C105.479 87.9152 119.646 75.4574 137.521 69.8734C145.724 67.3091 154.493 66.2632 163.014 67.6145C171.902 69.023 180.081 73.0781 186.926 78.8669C201.267 90.9917 209.115 108.531 216.246 125.463C220.029 134.448 223.743 143.498 228.463 152.041C233.02 160.302 238.644 167.865 244.999 174.827C257.956 189.024 273.35 200.655 287.46 213.639C301.229 226.315 314.515 240.869 320.962 258.768C326.915 275.302 327.192 295.057 317.084 310.062C307.133 324.83 289.444 331.613 272.915 335.963C255.363 340.577 236.726 343.327 221.214 353.385C205.901 363.32 195.703 379.047 186.763 394.562C177.318 410.956 168.514 428.36 154.276 441.234C141.719 452.591 123.302 459.893 106.456 454.799C89.3882 449.646 81.0121 432.494 78.4655 416.034C75.4043 396.278 80.0294 376.274 77.9274 356.454C76.1643 339.852 69.7509 323.837 59.7167 310.516C50.8145 298.689 38.7281 290.129 27.6369 280.521C18.0663 272.231 8.40704 263.152 2.53695 251.754C-3.53302 239.982 -3.5226 226.961 1.61038 214.837C5.14457 206.477 10.4484 199.046 16.6885 192.488C17.0891 192.036 16.4212 191.36 15.9943 191.794Z" fill="url(#paint0_linear_11_62)"/>
<path opacity="0.2" d="M-10.6331 179.276C-22.8724 191.919 -33.2339 208.875 -32.9066 227.049C-32.6561 241.144 -25.519 253.647 -16.5055 264.055C-6.33803 275.797 5.9944 285.447 17.8711 295.369C25.155 301.452 32.0103 307.782 37.7896 315.345C44.0057 323.481 49.0418 332.544 52.655 342.125C56.4011 352.022 58.6059 362.417 59.2265 372.967C59.9387 384.991 58.8898 397.019 58.4328 409.041C57.6762 428.788 58.9516 450.301 71.3526 466.689C76.8271 473.922 84.3572 479.356 93.1057 481.866C102.096 484.441 111.759 483.924 120.705 481.445C141.047 475.808 155.924 460.507 167.389 443.453C179.679 425.171 188.655 404.811 202.116 387.298C208.854 378.533 216.754 370.535 226.188 364.688C235.538 358.89 246.009 355.277 256.583 352.406C276.509 347.009 297.479 343.973 315.531 333.322C323.853 328.419 331.267 321.886 336.371 313.615C341.486 305.306 344.069 295.666 344.577 285.967C346.933 240.352 308.583 209.495 277.534 182.53C260.167 167.441 243.605 151.439 232.685 130.914C222.151 111.112 215.931 89.1959 203.919 70.1583C193.269 53.2661 177.778 38.5556 157.307 35.5551C137.862 32.7053 118.024 39.9785 102.361 51.2177C84.3143 64.1681 70.8526 82.571 58.2011 100.539C51.3995 110.198 44.8321 120.064 37.3309 129.204C29.9265 138.215 21.8335 146.627 13.574 154.849C9.63153 158.783 5.64857 162.674 1.68233 166.581C-2.52577 170.733 -6.43274 175.153 -10.5405 179.394C-10.8242 179.68 -10.3854 180.129 -10.1017 179.843C-6.00619 175.609 -1.55232 171.698 2.64353 167.553C6.60977 163.646 10.5857 159.742 14.5352 155.821C22.6 147.784 30.5149 139.573 37.7748 130.793C52.1828 113.379 63.5558 93.6914 78.103 76.3765C91.6773 60.2192 107.903 45.9525 128.379 39.5438C137.78 36.6068 147.842 35.4104 157.613 36.9623C167.813 38.5771 177.178 43.2295 185.034 49.8795C201.458 63.7737 210.447 83.8545 218.618 103.24C222.952 113.532 227.197 123.884 232.6 133.665C237.811 143.116 244.252 151.768 251.518 159.73C266.357 175.984 283.981 189.3 300.134 204.167C315.911 218.695 331.126 235.361 338.51 255.871C345.327 274.821 345.645 297.475 334.049 314.67C322.64 331.594 302.373 339.384 283.418 344.367C263.336 349.65 242.005 352.796 224.252 364.303C206.734 375.667 195.069 393.661 184.847 411.41C174.031 430.18 163.937 450.117 147.648 464.853C133.258 477.872 112.132 486.24 92.8124 480.411C73.2442 474.505 63.6273 454.836 60.7015 435.965C57.1961 413.347 62.4985 390.429 60.0811 367.73C58.0644 348.751 50.7172 330.425 39.2501 315.188C29.0571 301.648 15.2304 291.856 2.54205 280.868C-8.42237 271.366 -19.4785 260.97 -26.2085 247.914C-33.1685 234.402 -33.1552 219.477 -27.2522 205.56C-23.1954 195.984 -17.1263 187.475 -9.9704 179.971C-9.54534 179.505 -10.2132 178.83 -10.6331 179.276Z" fill="url(#paint1_linear_11_62)"/>
<path opacity="0.075" d="M226.525 167.889C217.278 153.216 212.306 136.458 204.507 121.055C197.71 107.628 188.051 94.3764 173.972 87.9953C160.38 81.8479 144.913 83.6253 131.6 89.6136C116.768 96.2822 105.163 107.987 95.2052 120.579C84.3224 134.341 75.3511 149.548 63.8434 162.821C52.3706 176.043 39.0461 187.442 27.2562 200.34C18.3229 210.111 10.9852 223.084 11.244 236.685C11.4415 247.152 16.416 256.56 22.9241 264.495C30.3519 273.556 39.5583 281.003 48.527 288.448C53.6777 292.716 58.8633 296.932 63.342 301.932C68.3442 307.527 72.5733 313.806 75.9072 320.527C79.3304 327.418 81.7874 334.785 83.1884 342.345C84.8006 351.049 84.7314 359.924 84.3478 368.735C83.6465 384.759 82.1272 401.248 88.2477 416.502C90.825 422.917 94.688 428.901 100.138 433.25C105.579 437.596 112.263 439.967 119.196 440.365C134.063 441.212 148.173 433.915 158.435 423.589C181.634 400.258 188.729 362.922 218.161 345.424C232.445 336.932 249.203 334.744 264.961 330.374C278.962 326.495 293.444 320.551 302.471 308.611C311.688 296.431 312.962 280.084 309.361 265.629C305.473 250 295.703 236.698 284.624 225.344C281.83 222.483 278.946 219.723 275.993 217.027C272.959 214.247 269.647 211.848 266.536 209.161C266.233 208.904 265.786 209.333 266.088 209.6C269.174 212.26 272.011 215.235 275.011 217.985C278.028 220.751 280.999 223.576 283.855 226.515C289.48 232.298 294.705 238.491 299.015 245.319C307.329 258.49 311.948 274.48 309.04 290.048C307.645 297.532 304.416 304.597 299.345 310.309C294.393 315.888 288.06 320.009 281.332 323.134C267.155 329.719 251.519 331.741 236.647 336.204C229.25 338.425 221.983 341.282 215.482 345.493C208.944 349.725 203.328 355.229 198.467 361.277C188.47 373.703 181.592 388.166 173.277 401.694C164.997 415.171 154.779 428.386 139.937 434.938C126.494 440.871 109.946 440.961 98.8225 430.278C88.0278 419.911 85.0826 403.934 84.9844 389.58C84.8667 372.787 87.6264 355.958 83.9714 339.346C80.8936 325.332 74.1709 312.132 64.6683 301.386C56.5655 292.217 46.2661 285.14 37.1559 277.026C29.126 269.863 21.1647 261.943 16.42 252.141C11.5018 241.982 11.5995 230.837 15.8324 220.449C22.1405 204.943 35.3467 193.947 46.9579 182.45C53.073 176.396 59.1264 170.264 64.7641 163.751C70.2038 157.475 75.0462 150.801 79.7986 144C97.5193 118.704 118.475 87.6705 152.501 85.4825C160.002 84.9974 167.546 86.2838 174.329 89.561C181.24 92.9035 187.113 98.0283 191.999 103.903C202.466 116.46 208.125 131.89 214.552 146.698C217.791 154.161 221.286 161.516 225.695 168.36C226.033 168.876 226.854 168.402 226.525 167.889Z" fill="url(#paint2_linear_11_62)"/>
<defs>
<linearGradient id="paint0_linear_11_62" x1="178.649" y1="452.56" x2="144.862" y2="66.3701" gradientUnits="userSpaceOnUse">
<stop offset="0.0277" stop-color="#FC4837"/>
<stop offset="1" stop-color="#313C40"/>
</linearGradient>
<linearGradient id="paint1_linear_11_62" x1="95.0734" y1="482.395" x2="211.045" y2="49.5838" gradientUnits="userSpaceOnUse">
<stop stop-color="#76413C"/>
<stop offset="0.6103" stop-color="#3F4541"/>
<stop offset="1" stop-color="#313C40"/>
</linearGradient>
<linearGradient id="paint2_linear_11_62" x1="33.2226" y1="322.217" x2="266.778" y2="187.374" gradientUnits="userSpaceOnUse">
<stop stop-color="#362F2F"/>
<stop offset="0.217871" stop-color="#453E3E"/>
<stop offset="0.40017" stop-color="#4C403F"/>
<stop offset="0.582469" stop-color="#694E4C"/>
<stop offset="0.68664" stop-color="#7B4B46"/>
<stop offset="0.790811" stop-color="#93514B"/>
<stop offset="0.868939" stop-color="#B4554C"/>
<stop offset="0.926233" stop-color="#C54E43"/>
<stop offset="1" stop-color="#FC4837"/>
</linearGradient>
</defs>
</svg>
