<svg width="5" height="173" viewBox="0 0 5 173" fill="none" xmlns="http://www.w3.org/2000/svg">
<g opacity="0.1">
<path d="M4.45562 127.839C4.45562 129.062 3.46289 130.067 2.22779 130.067C1.00423 130.067 -4.33918e-08 129.074 -9.73798e-08 127.839C-1.50863e-07 126.615 0.99269 125.611 2.22779 125.611C3.46289 125.611 4.45562 126.604 4.45562 127.839Z" fill="#FC4837"/>
<path d="M4.45562 169.832C4.45562 171.056 3.46289 172.06 2.22779 172.06C1.00423 172.06 -4.33918e-08 171.067 -9.73798e-08 169.832C-1.51368e-07 168.597 0.99269 167.604 2.22779 167.604C3.46289 167.604 4.45562 168.609 4.45562 169.832Z" fill="#FC4837"/>
<path d="M4.45562 106.9C4.45562 108.123 3.46289 109.128 2.22779 109.128C1.00423 109.128 -4.33934e-08 108.135 -9.73814e-08 106.9C-1.50865e-07 105.676 0.99269 104.672 2.22779 104.672C3.46289 104.672 4.45562 105.676 4.45562 106.9Z" fill="#FC4837"/>
<path d="M4.45562 85.9607C4.45562 87.1843 3.46289 88.1885 2.22779 88.1885C1.00423 88.1885 -4.33918e-08 87.1958 -9.73798e-08 85.9607C-1.50863e-07 84.7372 0.99269 83.7329 2.22779 83.7329C3.46289 83.7445 4.45562 84.7372 4.45562 85.9607Z" fill="#FC4837"/>
<path d="M4.45562 65.0333C4.45562 66.2568 3.46289 67.2611 2.22779 67.2611C1.00423 67.2611 -4.33918e-08 66.2684 -9.73798e-08 65.0333C-1.50863e-07 63.8097 0.99269 62.8055 2.22779 62.8055C3.46289 62.8055 4.45562 63.8097 4.45562 65.0333Z" fill="#FC4837"/>
<path d="M4.45562 2.22778C4.45562 3.45133 3.46289 4.45557 2.22779 4.45557C1.00423 4.45557 -4.33918e-08 3.46288 -9.73798e-08 2.22778C-1.50863e-07 1.00422 0.99269 -1.55501e-05 2.22779 -1.56041e-05C3.46289 -1.56581e-05 4.45562 1.00422 4.45562 2.22778Z" fill="#FC4837"/>
</g>
</svg>
