<svg width="1065" height="592" viewBox="0 0 1065 592" fill="none" xmlns="http://www.w3.org/2000/svg">
<g opacity="0.025">
<path opacity="0.81" d="M784.396 -192L1.64706 590.725" stroke="white" stroke-width="2" stroke-miterlimit="10"/>
<path opacity="0.81" d="M803.121 -192L20.3954 590.725" stroke="white" stroke-width="2" stroke-miterlimit="10"/>
<path opacity="0.81" d="M821.845 -192L39.1201 590.725" stroke="white" stroke-width="2" stroke-miterlimit="10"/>
<path opacity="0.81" d="M840.594 -192L57.8685 590.725" stroke="white" stroke-width="2" stroke-miterlimit="10"/>
<path opacity="0.81" d="M859.318 -192L76.5932 590.725" stroke="white" stroke-width="2" stroke-miterlimit="10"/>
<path opacity="0.81" d="M878.067 -192L95.3178 590.725" stroke="white" stroke-width="2" stroke-miterlimit="10"/>
<path opacity="0.81" d="M896.791 -192L114.066 590.725" stroke="white" stroke-width="2" stroke-miterlimit="10"/>
<path opacity="0.81" d="M915.516 -192L132.791 590.725" stroke="white" stroke-width="2" stroke-miterlimit="10"/>
<path opacity="0.81" d="M934.265 -192L151.516 590.725" stroke="white" stroke-width="2" stroke-miterlimit="10"/>
<path opacity="0.81" d="M952.989 -192L170.264 590.725" stroke="white" stroke-width="2" stroke-miterlimit="10"/>
<path opacity="0.81" d="M1327.65 -192L544.923 590.725" stroke="white" stroke-width="2" stroke-miterlimit="10"/>
<path opacity="0.81" d="M1346.4 -192L563.648 590.725" stroke="white" stroke-width="2" stroke-miterlimit="10"/>
<path opacity="0.81" d="M1365.12 -192L582.396 590.725" stroke="white" stroke-width="2" stroke-miterlimit="10"/>
<path opacity="0.81" d="M1383.85 -192L601.121 590.725" stroke="white" stroke-width="2" stroke-miterlimit="10"/>
<path opacity="0.81" d="M1402.59 -192L619.846 590.725" stroke="white" stroke-width="2" stroke-miterlimit="10"/>
<path opacity="0.81" d="M1421.32 -192L638.594 590.725" stroke="white" stroke-width="2" stroke-miterlimit="10"/>
<path opacity="0.81" d="M1440.04 -192L657.319 590.725" stroke="white" stroke-width="2" stroke-miterlimit="10"/>
<path opacity="0.81" d="M1458.79 -192L676.067 590.725" stroke="white" stroke-width="2" stroke-miterlimit="10"/>
<path opacity="0.81" d="M1477.52 -192L694.792 590.725" stroke="white" stroke-width="2" stroke-miterlimit="10"/>
<path opacity="0.81" d="M1496.27 -192L713.516 590.725" stroke="white" stroke-width="2" stroke-miterlimit="10"/>
</g>
</svg>
